<svg xmlns="http://www.w3.org/2000/svg" viewBox="0 0 404 420.2" width="24" height="24">
  <path fill="#E2761B" stroke="#E2761B" stroke-linecap="round" stroke-linejoin="round" d="m382.9 290.9-24.4 82.5-47.9-13.1z"/>
  <path fill="#E4761B" stroke="#E4761B" stroke-linecap="round" stroke-linejoin="round" d="m310.6 360.3 46.2-156.3-81.7 91.3z"/>
  <path fill="#E4761B" stroke="#E4761B" stroke-linecap="round" stroke-linejoin="round" d="m90.1 234.2 46.7 125.9 36.2-92.4z"/>
  <path fill="#E4761B" stroke="#E4761B" stroke-linecap="round" stroke-linejoin="round" d="m261.8 202.2-28.3-68.7-86.7 65.5z"/>
  <path fill="#E4761B" stroke="#E4761B" stroke-linecap="round" stroke-linejoin="round" d="m146.9 133.5-28.8 69.6 115-2.9z"/>
  <path fill="#F6851B" stroke="#F6851B" stroke-linecap="round" stroke-linejoin="round" d="m146.9 133.5 75 43.9 28.3-68.7z"/>
  <path fill="#763D16" stroke="#763D16" stroke-linecap="round" stroke-linejoin="round" d="m174.9 77.3-78.2 57.5 49.8-1.3z"/>
  <path fill="#763D16" stroke="#763D16" stroke-linecap="round" stroke-linejoin="round" d="m174.9 77.3 68.3 8.4-19.5 22.9z"/>
  <path fill="#F6851B" stroke="#F6851B" stroke-linecap="round" stroke-linejoin="round" d="m173.2 177.2-78.1-60.9 81.4 17.6z"/>
  <path fill="#E4761B" stroke="#E4761B" stroke-linecap="round" stroke-linejoin="round" d="m91.1 127.8 82 49.4 15.6-40.6z"/>
  <path fill="#E4761B" stroke="#E4761B" stroke-linecap="round" stroke-linejoin="round" d="m173.2 177.2 78.1-94.3-61.6 53.7z"/>
  <path fill="#763D16" stroke="#763D16" stroke-linecap="round" stroke-linejoin="round" d="m243.4 85.7 4.8-6.4 25.4 1.2z"/>
  <path fill="#763D16" stroke="#763D16" stroke-linecap="round" stroke-linejoin="round" d="m96.7 134.8 74.7-56.2-77.9 44.8z"/>
  <path fill="#CD6116" stroke="#CD6116" stroke-linecap="round" stroke-linejoin="round" d="m173.2 177.2 16.7-100.9-16.4 39.7z"/>
  <path fill="#CD6116" stroke="#CD6116" stroke-linecap="round" stroke-linejoin="round" d="M153.3 267.8h102.3L205 332.4z"/>
  <path fill="#F6851B" stroke="#F6851B" stroke-linecap="round" stroke-linejoin="round" d="m138.8 193.5 53.3 74.3h-67.5z"/>
  <path fill="#E4751F" stroke="#E4751F" stroke-linecap="round" stroke-linejoin="round" d="m202.5 202.2 54.6 65.6h-103.8z"/>
  <path fill="#E4761B" stroke="#E4761B" stroke-linecap="round" stroke-linejoin="round" d="m254.8 234.2-83.9-152 75.9 127.7z"/>
  <path fill="#E4761B" stroke="#E4761B" stroke-linecap="round" stroke-linejoin="round" d="m95.5 219.9 100.5-124.9 7.8 148.4z"/>
  <path fill="#CD6116" stroke="#CD6116" stroke-linecap="round" stroke-linejoin="round" d="m136.8 360.3 16-92.6 51.3 64.7z"/>
  <path fill="#CD6116" stroke="#CD6116" stroke-linecap="round" stroke-linejoin="round" d="m271.9 354.5-135-19.7 16.2-87.7z"/>
  <path fill="#E4761B" stroke="#E4761B" stroke-linecap="round" stroke-linejoin="round" d="m271.9 354.5-118.8-27.9 71.2-6z"/>
  <path fill="#233447" stroke="#233447" stroke-linecap="round" stroke-linejoin="round" d="m224.3 193.5-28.6-16.5 8.4 48.1z"/>
  <path fill="#233447" stroke="#233447" stroke-linecap="round" stroke-linejoin="round" d="m182.6 176.9-10.3 66.1-28.3-49.5z"/>
  <path fill="#CD6116" stroke="#CD6116" stroke-linecap="round" stroke-linejoin="round" d="M181.9, 360.3 153.8, 331z"/>
  <path fill="#E4761B" stroke="#E4761B" stroke-linecap="round" stroke-linejoin="round" d="m136.8 360.3 45.1-29.3-26.4-40.7z"/>
  <path fill="#F6851B" stroke="#F6851B" stroke-linecap="round" stroke-linejoin="round" d="m204.8 266.8-27.4 25.9-1.2-70.7z"/>
  <path fill="#F6851B" stroke="#F6851B" stroke-linecap="round" stroke-linejoin="round" d="m137 221.7 41.1 5.3-13.5 39.8z"/>
  <path fill="#CD6116" stroke="#CD6116" stroke-linecap="round" stroke-linejoin="round" d="m112.2 307.3 58.6-39.9 13.5 47.3z"/>
  <path fill="#C0AD9E" stroke="#C0AD9E" stroke-linecap="round" stroke-linejoin="round" d="m204.1 290.9 65.5-27.9-64.8 13.5z"/>
  <path fill="#D7C1B3" stroke="#D7C1B3" stroke-linecap="round" stroke-linejoin="round" d="m204.1 290.9.7 26.7 16-10.6z"/>
  <path fill="#D7C1B3" stroke="#D7C1B3" stroke-linecap="round" stroke-linejoin="round" d="m204.8 317.6-73 8.6 72.3-18.6z"/>
  <path fill="#F6851B" stroke="#F6851B" stroke-linecap="round" stroke-linejoin="round" d="m311 290.9-42.8 63.6-74-36.9z"/>
  <path fill="#E4751F" stroke="#E4751F" stroke-linecap="round" stroke-linejoin="round" d="m194.4 317.6-10.3 43.6-15.6-21.6z"/>
  <path fill="#F6851B" stroke="#F6851B" stroke-linecap="round" stroke-linejoin="round" d="m253.1 188.9-71.8 16.5 8.4 48.1z"/>
  <path fill="#E4751F" stroke="#E4751F" stroke-linecap="round" stroke-linejoin="round" d="m189.7 173.2 49.8-49.5-40.1 3.9z"/>
  <path fill="#F6851B" stroke="#F6851B" stroke-linecap="round" stroke-linejoin="round" d="m146.9 133.5 33.1 39.7 9.7-100z"/>
  <path fill="#763D16" stroke="#763D16" stroke-linecap="round" stroke-linejoin="round" d="m174.9 77.3-3.9 40.4-28.2 15.8z"/>
  <path fill="#763D16" stroke="#763D16" stroke-linecap="round" stroke-linejoin="round" d="m174.9 77.3 48.2 31.5-2.9-17.8z"/>
  <path fill="#F6851B" stroke="#F6851B" stroke-linecap="round" stroke-linejoin="round" d="m95.5 219.9 116.1 21-97.7 20.8z"/>
  <path fill="#CD6116" stroke="#CD6116" stroke-linecap="round" stroke-linejoin="round" d="m152.4 191 42.8 48.8-49.4-17.7z"/>
  <path fill="#F6851B" stroke="#F6851B" stroke-linecap="round" stroke-linejoin="round" d="m212.8 143.6-7.8 48.7 63.3-2.3z"/>
  <path fill="#F6851B" stroke="#F6851B" stroke-linecap="round" stroke-linejoin="round" d="m88.9 277.4 36.7 1.2-20.5-39.9z"/>
  <path fill="#CD6116" stroke="#CD6116" stroke-linecap="round" stroke-linejoin="round" d="m190.8 230.3-28.6-15.6 26.7-18.7z"/>
  <path fill="#E4761B" stroke="#E4761B" stroke-linecap="round" stroke-linejoin="round" d="m268.6 82.2-79.8 13.5 2.3 4.8z"/>
  <path fill="#CD6116" stroke="#CD6116" stroke-linecap="round" stroke-linejoin="round" d="m200.8 317.6-6.8 3.4.3 1.6z"/>
  <path fill="#C0AD9E" stroke="#C0AD9E" stroke-linecap="round" stroke-linejoin="round" d="m197.6 366.4-12.5-7.9 6.8-40.9z"/>
  <path fill="#E4761B" stroke="#E4761B" stroke-linecap="round" stroke-linejoin="round" d="m190.8 359.1 69.8-5.2-69.8 12.5z"/>
  <path fill="#F6851B" stroke="#F6851B" stroke-linecap="round" stroke-linejoin="round" d="m189.7 173.2-38.2-39.7 106.1-9.8z"/>
  <path fill="#CD6116" stroke="#CD6116" stroke-linecap="round" stroke-linejoin="round" d="m235.5 355.6-44.7 3.5 5.8 6.7z"/>
  <path fill="#C0AD9E" stroke="#C0AD9E" stroke-linecap="round" stroke-linejoin="round" d="m185.1 358.4 5.7 8 38.9-10.8z"/>
  <path fill="#161616" stroke="#161616" stroke-linecap="round" stroke-linejoin="round" d="m169.1 293.5 16 56-5.4-76.8z"/>
  <path fill="#161616" stroke="#161616" stroke-linecap="round" stroke-linejoin="round" d="m206.2 262.8 27.9 16.5-23.3 11.4z"/>
  <path fill="#161616" stroke="#161616" stroke-linecap="round" stroke-linejoin="round" d="m212.8 143.6-38.9 29.3-7.5-39.6z"/>
  <path fill="#161616" stroke="#161616" stroke-linecap="round" stroke-linejoin="round" d="m208.2 356.4-22.6 4.8 5.5-46.2z"/>
  <path fill="#161616" stroke="#161616" stroke-linecap="round" stroke-linejoin="round" d="m185.1 358.4-13-1.1 4.7-63.6z"/>
  <path fill="#161616" stroke="#161616" stroke-linecap="round" stroke-linejoin="round" d="m238.2 112.2-67.1 30.5 12.5-36.7z"/>
  <path fill="#161616" stroke="#161616" stroke-linecap="round" stroke-linejoin="round" d="m190.8 230.3-4.3 41.2 11.2-34.2z"/>
  <path fill="#161616" stroke="#161616" stroke-linecap="round" stroke-linejoin="round" d="m175.3 272.5 25.5 25.1-18-46.8z"/>
</svg> 